# xmcd
#
# Track frame offsets:
#  150
#  15135
#  29045
#  39262
#  53985
#  64692
#  78117
#  90402
#  105900
#  116132
#  124065
#  136685
#  147715
#  161225
#  179282
#
# Disc length: 2607 seconds
#
# Revision: 0
# Processed by: cddbd v1.4PL0 Copyright (c) Steve Scherf et al.
# Submitted via: AltoMP3_Maker 3.0
#
DISCID=be0a2d0f
DTITLE=Various Artist - Ultimate Soul cd2
DYEAR=1900
DGENRE=
TTITLE0=I've Got to Use My Imagination
TTITLE1=Hot Pants
TTITLE2=Bring It On Home
TTITLE3=Oooh Child
TTITLE4=Heatwave
TTITLE5=What Becomes Of The Broken Hearted
TTITLE6=Rescue Me
TTITLE7=Black Superman
TTITLE8=Blueberry Hill
TTITLE9=Love Potion No. 9
TTITLE10=Stand By Me
TTITLE11=You Send Me
TTITLE12=Patches
TTITLE13=Rainy Night In Georgia
TTITLE14=Love The One Your With
EXTD=
EXTT0=
EXTT1=
EXTT2=
EXTT3=
EXTT4=
EXTT5=
EXTT6=
EXTT7=
EXTT8=
EXTT9=
EXTT10=
EXTT11=
EXTT12=
EXTT13=
EXTT14=
PLAYORDER=
